<svg width="512" height="263" enable-background="new 0 0 512 512" version="1.1" viewBox="0 0 512 263" xmlns="http://www.w3.org/2000/svg">
<g transform="translate(0 -177)">
<path d="m61.7 315-11.4 110h-30c-1.82-0.072-2.79-1.3-2.43-3.09l21.8-108-6.2-0.217-4.96-0.137-25.2 105c-2.68 10.7 5.86 21.7 17 21.6 44-0.326 426-0.293 472 0 11.1 0.071 19.7-10.8 17-21.6l-25.2-105c16.3-4.06 28.4-18.8 28.4-36.4v-63c0-20.7-16.8-37.5-37.5-37.5-207 0.87-206 0.253-428 0h-8.66c-20.7 0-37.5 16.8-37.5 37.5v63c0 17.6 12.1 32.3 28.4 36.4m69.5 111h-32.6l11.4-110h27.3zm41.9 0h-26.9l6.16-110h25.1zm42.8 0h-27.8l4.4-110h25.5zm43 0h-28l2.08-110h27.5zm44.1 0h-29.1l1.58-110h27.5v110zm15 0v-110h27.5l1.2 110h-28.7zm43.7 0-1.2-110h25.6l4.4 110zm43.8 0-4.4-110h26l5.28 110zm41.9 0-5.28-110h25.3l10.6 110zm80.1-3.09c0.361 1.8-0.61 3.02-2.43 3.09h-32l-10.6-110h19.1zm2.77-144c0 12.4-10.1 22.5-22.5 22.5h-437c-12.4 0-22.5-10.1-22.5-22.5v-63c0-12.4 10.1-22.5 22.5-22.5 153-0.115 286-0.0184 423 1e-3 0.015 0 0.031-2e-3 0.046-2e-3h13.9c12.4 0 22.5 10.1 22.5 22.5z"/>
</g>
</svg>
