<svg width="48.3" height="52.6" version="1.1" viewBox="0 0 6.04 6.58" xmlns="http://www.w3.org/2000/svg">
<g fill="none" stroke="#000" stroke-linejoin="round">
<path d="m0.874 1.66c0 1.45 1.75 2.17 2.77 1.15 1.02-1.02 0.299-2.77-1.15-2.77-0.897 0.00103-1.62 0.728-1.63 1.62z" stroke-width=".125"/>
<path d="m3.68 1.99c0.0484 0.294-0.249 0.87-0.903 0.871" stroke-linecap="square" stroke-width=".0625"/>
<path d="m5.78 3.91c0.0367 0.219-0.189 0.647-0.685 0.648" stroke-linecap="square" stroke-width=".0625"/>
<path d="m4.25 3.91c0 0.78 0.943 1.17 1.49 0.619 0.551-0.551 0.161-1.49-0.619-1.49-0.483 5.5e-4 -0.874 0.392-0.875 0.875z" stroke-width=".125"/>
<path d="m0.914 4.88c0.78 0 1.17-0.942 0.619-1.49-0.551-0.551-1.49-0.161-1.49 0.619 5.5e-4 0.483 0.392 0.874 0.875 0.875z" stroke-width=".125"/>
<path d="m1.54 4s0.0435 0.566-0.591 0.541" stroke-linecap="round" stroke-width=".0625"/>
<path d="m3.68 5.58c0.0367 0.219-0.189 0.647-0.685 0.648" stroke-linecap="square" stroke-width=".0625"/>
<path d="m2.87 4.29c-1 0-1.5 1.21-0.795 1.92s1.92 0.207 1.92-0.795c-7.62e-4 -0.621-0.504-1.12-1.13-1.12z" stroke-width=".125"/>
<path d="m4.37 2.29c0 0.334 0.404 0.501 0.64 0.265 0.236-0.236 0.069-0.64-0.265-0.64-0.207 0-0.375 0.168-0.375 0.375z" stroke-width=".0625"/>
<path d="m3.62 4.16c0.334 0 0.501-0.404 0.265-0.64s-0.64-0.069-0.64 0.265c0 0.207 0.168 0.375 0.375 0.375z" stroke-width=".0625" style="paint-order:stroke fill markers"/>
</g>
</svg>
