<svg width="628.1" height="284.4" viewBox="0 0 166.2 75.2"><g fill="none" stroke="#000006" stroke-linejoin="round" stroke-width="3"><path d="M149.4 121.7c-1.7-3.6-25-9.8-37.6-15.3-1.1-.5-21.4-8.6-21.9-9-2.6-2.3-10.2-2.2-10.2-6.6-.1-5.2 5.6-17.4 7-17.3 10 7.8 18.2 11.4 27.4 16.8 5.8 3.4 11.3 7 17.3 9.9 6.9 3.2 14 5.7 21.3 8 5.8 1.9 14.2 3.9 17.7 4.8 7.1 1.8 9.3.8 14.6 3.4 5.2 2.2 7.5 8.1 7.5 8.1 3.2 3 1.2 14.5-.4 16.8-.3.5-6.3 2.2-9.6 3-8.4 1.8-23.4 3.2-25.6 3.4-13.5 1.2-27 .7-40.6.3l-33.9-1-32.7-.7-10.7-.7s-4.5-.6-7.5-1.2c-.9-.1-3.5-.3-3.3-3.9.1-.8.1-3.6.4-6.3.3-2.2-.5-4.4 0-6.3.2-.4.8-.7.7-1.2a61.4 61.4 0 013.1-33.5c.6-2.2 2.5-5.5 4.3-5.5 2.3.1 23.8 18.5 43 3.2" transform="matrix(.99974 0 0 1.0005 -28 -73.4)"/><path d="M28.6 127.9c49.3 3.1 94.3 4.5 142.7 1.8 16.3-1 19.6-3 19.6-3s2.2-1.2 1.3-2.8M30.4 99.8s12.4 10.8 28.1 12.5c9.6 1 20.7-3.9 31.4-15" transform="matrix(.99974 0 0 1.0005 -28 -73.4)"/><path d="M132 131c9.8-10.3 22.4-10.2 32.8-11.6 3-.3 7.8-.8 9.6-1.3 8.6-2.3 6.6-3.2 6.6-3.2" transform="matrix(.99974 0 0 1.0005 -28 -73.4)"/></g></svg>