<svg width="36.9mm" height="28.9mm" version="1.1" viewBox="0 0 36.9 28.9" xmlns="http://www.w3.org/2000/svg">
<g transform="translate(318 -367)">
<g transform="rotate(180 -296 384)">
<g transform="rotate(-45 -295 379)">
<path d="m-298 368s-4.46 9.38-15.3 6.84c2.16 1.32 4.05 3.08 5.37 5.2 0.785 1.26 1.16 2.78 1.36 4.25 0.269 1.97 0.149 3.97-0.23 5.96-0.0135 0.0697 1.5-2.44 2.49-3.46 1.86-1.9 4.45-3.11 6.85-3.51 1.17-0.184 4.74 0.164 6.14 0.265 0.418 0.0302-2.68-1.27-4.48-3.44-1.64-1.96-2.65-4.4-2.82-6.77-0.18-2.79 0.607-5.35 0.605-5.34"/>
<path d="m-283 381s0.349 6.91 7.66 8.12c-1.67 0.263-3.28 0.862-4.64 1.83-0.806 0.577-1.42 1.41-1.92 2.27-0.669 1.14-1.11 2.41-1.38 3.73-0.01 0.0462-0.302-1.88-0.647-2.77-0.661-1.64-1.95-3.05-3.32-3.91-0.675-0.413-2.96-1.11-3.85-1.41-0.265-0.0885 1.98-0.0993 3.64-0.974 1.51-0.787 2.76-2.03 3.47-3.44 0.824-1.67 0.992-3.45 0.991-3.44"/>
<path d="m-290 392s-5.22 4.55-11.2 0.123c0.969 1.38 1.66 2.96 1.9 4.61 0.144 0.981-0.0272 2-0.295 2.96-0.358 1.28-0.964 2.47-1.72 3.58-0.0266 0.039 1.57-1.09 2.44-1.46 1.64-0.664 3.55-0.718 5.12-0.322 0.766 0.199 2.86 1.36 3.68 1.79 0.248 0.13-1.3-1.49-1.82-3.29-0.485-1.64-0.455-3.39 0.0694-4.89 0.631-1.75 1.79-3.11 1.79-3.1"/>
</g>
</g>
</g>
</svg>
